<?xml version="1.0" encoding="utf-8"?>
<!-- Generator: Adobe Illustrator 16.0.0, SVG Export Plug-In . SVG Version: 6.00 Build 0)  -->
<!DOCTYPE svg PUBLIC "-//W3C//DTD SVG 1.1//EN" "http://www.w3.org/Graphics/SVG/1.1/DTD/svg11.dtd">
<svg version="1.1" id="Layer_1" xmlns="http://www.w3.org/2000/svg" xmlns:xlink="http://www.w3.org/1999/xlink" x="0px" y="0px"
	 width="296.963px" height="28.996px" viewBox="0 0 296.963 28.996" enable-background="new 0 0 296.963 28.996"
	 xml:space="preserve">
<path fill-rule="evenodd" clip-rule="evenodd" fill="#01B09A" d="M0,7.269c0-2.396,0-4.734,0-7.165c9.697,0,19.302,0,29.031,0
	c0,2.35,0,4.689,0,7.165C19.396,7.269,9.75,7.269,0,7.269z"/>
<path fill-rule="evenodd" clip-rule="evenodd" fill="#01B09A" d="M29.096,14.708c0,2.451,0,4.745,0,7.165
	c-9.693,0-19.344,0-29.096,0c0-2.389,0-4.727,0-7.165C9.701,14.708,19.307,14.708,29.096,14.708z"/>
<path fill-rule="evenodd" clip-rule="evenodd" fill="#505052" d="M161.15,19.132c-1.182-2.194-1.113-2.684,0.521-4.5
	c-1.908-1.826-2.375-3.45-1.549-5.439c0.904-2.178,2.797-2.739,4.867-2.738c1.252,0.001,2.502,0.385,3.892,0.619
	c0.218-0.411,0.479-0.903,0.84-1.585c0.708,0.262,1.457,0.537,2.54,0.938c-0.74,0.911-1.346,1.657-2.046,2.52
	c0.603,4.908-1.305,6.736-7.028,6.269c-0.539,0.274-0.785,0.761-0.771,1.061c0.015,0.299,0.834,0.736,0.995,0.742
	c1.345,0.052,2.693,0.036,4.039,0.107c2.478,0.129,3.893,1.272,4.102,3.249c0.213,2.02-0.836,3.677-3.169,4.154
	c-1.97,0.403-4.056,0.421-6.079,0.33c-1.494-0.068-2.943-0.666-3.294-2.432C158.669,20.703,159.518,19.61,161.15,19.132z
	 M164.867,19.694c-0.446,0.069-1.366,0.086-2.182,0.386c-0.423,0.155-0.908,0.807-0.914,1.241c-0.007,0.446,0.438,1.142,0.854,1.31
	c1.722,0.697,3.526,0.654,5.21-0.11c0.432-0.196,0.867-1.033,0.797-1.501c-0.066-0.455-0.719-0.993-1.225-1.168
	C166.77,19.632,166.018,19.745,164.867,19.694z M167.504,10.861c-0.023-1.416-1.031-2.352-2.485-2.305
	c-1.516,0.049-2.283,0.904-2.23,2.486c0.046,1.409,0.893,2.215,2.319,2.211C166.588,13.248,167.525,12.312,167.504,10.861z"/>
<path fill-rule="evenodd" clip-rule="evenodd" fill="#59595B" d="M63.994,19.336c-0.856,0-1.557,0-2.371,0
	c-0.167-0.331-0.357-0.707-0.574-1.137c-0.177,0.093-0.344,0.149-0.474,0.253c-3.027,2.412-6.855,1.333-7.951-2.346
	c-0.357-1.2-0.443-2.531-0.395-3.793c0.179-4.684,4.204-7.586,8.803-4.769c0-2.094,0-4.136,0-6.294c1.013,0,1.939,0,2.962,0
	C63.994,7.253,63.994,13.194,63.994,19.336z M61.131,12.976c-0.016,0-0.019-0.898-0.053-1.344c-0.129-1.709-0.888-2.618-2.323-2.815
	c-1.566-0.215-2.885,0.436-3.203,2.046c-0.286,1.449-0.266,3.045,0.021,4.497c0.283,1.43,1.635,2.155,2.883,2.016
	c1.354-0.151,2.403-1.214,2.589-2.675C61.119,14.131,61.105,13.551,61.131,12.976z"/>
<path fill-rule="evenodd" clip-rule="evenodd" fill="#505052" d="M120.699,7.226c-0.996,0.227-1.852,0.421-2.852,0.647
	c-0.394-1.36-1.094-2.386-2.605-2.428c-1.044-0.029-1.918,0.295-2.289,1.371c-0.388,1.126,0.188,1.897,1.127,2.348
	c1.383,0.662,2.867,1.117,4.225,1.821c2.182,1.132,2.982,3.421,2.137,5.725c-0.088,0.237-0.189,0.479-0.33,0.688
	c-1.61,2.391-4.068,2.464-6.533,2.23c-2.48-0.234-3.745-1.495-4.339-4.069c0.789-0.301,1.6-0.61,2.57-0.979
	c0.442,1.471,1.227,2.505,2.725,2.751c1.364,0.226,2.701-0.429,3.006-1.472c0.316-1.074-0.232-1.998-1.663-2.646
	c-1.106-0.5-2.278-0.856-3.369-1.388c-2.171-1.06-3.104-2.807-2.759-4.972c0.351-2.197,1.698-3.497,4.203-3.781
	c1.123-0.127,2.32-0.072,3.423,0.176C119.305,3.683,120.452,4.961,120.699,7.226z"/>
<path fill-rule="evenodd" clip-rule="evenodd" fill="#505052" d="M44.43,7.248c-0.92,0.212-1.719,0.396-2.627,0.605
	c-0.206-0.432-0.347-0.843-0.582-1.192c-0.629-0.937-1.569-1.479-2.638-1.143c-0.69,0.218-1.455,0.804-1.778,1.433
	c-0.417,0.813,0.059,1.669,0.904,2.075c1.151,0.553,2.361,0.982,3.537,1.487c1.593,0.684,2.925,1.619,3.234,3.5
	c0.465,2.831-0.759,4.782-3.593,5.407c-1.167,0.258-2.434,0.319-3.622,0.181c-2.361-0.274-3.464-1.383-4.265-4.01
	c0.808-0.303,1.626-0.609,2.558-0.958c0.246,0.448,0.447,0.82,0.652,1.19c0.725,1.309,1.917,1.658,3.28,1.479
	c0.925-0.121,1.752-0.518,1.918-1.596c0.155-1.007-0.238-1.788-1.163-2.208c-1.225-0.555-2.504-0.993-3.721-1.563
	c-2.335-1.096-3.264-2.867-2.861-5.295c0.01-0.062,0.003-0.13,0.016-0.191c0.475-2.305,2.675-3.656,5.693-3.5
	C42.557,3.114,44.16,4.424,44.43,7.248z"/>
<path fill-rule="evenodd" clip-rule="evenodd" fill="#505052" d="M182.725,13.695c-2.436,0-4.912,0-7.368,0
	c-0.229,1.779,0.278,2.873,1.499,3.4c1.457,0.631,2.473,0.231,3.901-1.592c0.677,0.206,1.392,0.422,2.51,0.762
	c-0.632,0.912-1.009,1.814-1.678,2.362c-2.995,2.459-8.092,0.929-9.046-2.823c-0.408-1.606-0.414-3.461-0.062-5.085
	c0.744-3.428,4.138-5.116,7.453-3.996C182.479,7.583,183.674,10.471,182.725,13.695z M175.171,11.735c0.972,0,1.796,0,2.619,0
	c0.804,0,1.605,0,2.42,0c-0.151-2.134-0.786-2.918-2.243-3.015C176.477,8.623,175.5,9.594,175.171,11.735z"/>
<path fill-rule="evenodd" clip-rule="evenodd" fill="#505052" d="M89.775,13.695c-2.436,0-4.912,0-7.368,0
	c-0.228,1.779,0.278,2.873,1.499,3.4c1.458,0.631,2.474,0.231,3.901-1.592c0.677,0.206,1.392,0.422,2.51,0.762
	c-0.631,0.912-1.01,1.814-1.677,2.362c-2.995,2.459-8.092,0.929-9.046-2.823c-0.409-1.606-0.415-3.461-0.062-5.085
	c0.745-3.428,4.137-5.116,7.453-3.996C89.53,7.583,90.725,10.471,89.775,13.695z M82.222,11.735c0.972,0,1.796,0,2.62,0
	c0.803,0,1.605,0,2.419,0c-0.151-2.134-0.786-2.918-2.243-3.015C83.527,8.623,82.551,9.594,82.222,11.735z"/>
<path fill-rule="evenodd" clip-rule="evenodd" fill="#505052" d="M157.84,19.278c-1.096,0-1.971,0-3.017,0
	c0-2.515,0.007-4.938-0.002-7.361c-0.008-2.119-0.528-2.91-1.909-2.95c-1.406-0.041-2.509,0.966-2.631,2.744
	c-0.146,2.108-0.062,4.231-0.076,6.35c-0.003,0.37-0.001,0.741-0.001,1.211c-0.95,0-1.756,0-2.698,0c0-4.113,0-12.501,0-12.501
	l2.198-0.032l0.061,2.229c0.663-0.988,2.375-2.175,3.485-2.415c2.578-0.56,4.479,0.938,4.566,3.566
	C157.916,13.123,157.84,16.133,157.84,19.278z"/>
<path fill-rule="evenodd" clip-rule="evenodd" fill="#59595B" d="M130.291,16.686c0.168,0.68,0.334,1.349,0.521,2.1
	c-1.564,1.068-3.24,1.187-4.954,0.68c-1.559-0.46-2.241-1.585-2.278-3.61c-0.039-2.18-0.009-4.771-0.009-6.995l-1.75,0.013V6.51
	h1.692l0.024-2.442l3.085-0.315l-0.012,2.876c0,0,2.34,0,3.585,0c0,0.87,0,1.544,0,2.367c-1.085,0-2.159,0-3.54,0
	c0,2.403-0.045,4.667,0.023,6.928c0.025,0.816,0.652,1.245,1.48,1.159C128.844,17.011,129.516,16.834,130.291,16.686z"/>
<path fill-rule="evenodd" clip-rule="evenodd" fill="#505052" d="M134.676,6.699l0.229,2.812c1.146-1.729,2.854-3.196,5.14-3.001
	c-0.078,1.028-0.157,2.06-0.242,3.163c-0.604,0-1.049-0.029-1.489,0.006c-1.906,0.147-2.981,1.354-3.095,3.684
	c-0.093,1.912-0.019,3.832-0.019,5.878c-0.942,0-1.795,0-2.775,0c0-4.022,0-8.085,0-12.442
	C133.109,6.768,134.676,6.699,134.676,6.699z"/>
<path fill-rule="evenodd" clip-rule="evenodd" fill="#59595B" d="M49.881,6.841c0,4.123,0,8.271,0,12.479c-0.975,0-1.86,0-2.855,0
	c0-4.148,0-8.235,0-12.479C47.949,6.841,48.866,6.841,49.881,6.841z"/>
<path fill-rule="evenodd" clip-rule="evenodd" fill="#59595B" d="M142.068,19.245c0-4.192,0-8.232,0-12.416c0.955,0,1.869,0,2.898,0
	c0,4.115,0,8.196,0,12.416C144.055,19.245,143.139,19.245,142.068,19.245z"/>
<path fill-rule="evenodd" clip-rule="evenodd" fill="#59595B" d="M50.347,2.822c0.015,1.139-0.791,1.926-1.937,1.892
	c-0.992-0.03-1.84-0.871-1.861-1.846c-0.021-0.997,0.765-1.808,1.808-1.864C49.549,0.94,50.333,1.656,50.347,2.822z"/>
<path fill-rule="evenodd" clip-rule="evenodd" fill="#505052" d="M77.114,19.278c-1.096,0-1.97,0-3.016,0
	c0-2.515,0.007-4.938-0.002-7.361c-0.007-2.119-0.528-2.91-1.909-2.95c-1.407-0.041-2.509,0.966-2.631,2.744
	c-0.145,2.108-0.062,4.231-0.076,6.35c-0.002,0.37,0,0.741,0,1.211c-0.95,0-1.756,0-2.699,0c0-4.113,0-12.501,0-12.501l2.198-0.032
	l0.061,2.229c0.663-0.988,2.375-2.175,3.486-2.415c2.578-0.56,4.478,0.938,4.565,3.566C77.191,13.123,77.114,16.133,77.114,19.278z"
	/>
<path fill-rule="evenodd" clip-rule="evenodd" fill="#59595B" d="M143.479,4.716c-1.086-0.041-1.918-0.978-1.822-2.053
	c0.09-1.012,0.918-1.698,1.995-1.658c1.094,0.042,1.804,0.762,1.808,1.834C145.463,3.946,144.607,4.758,143.479,4.716z"/>
<path fill-rule="evenodd" clip-rule="evenodd" fill="#505052" d="M90.986,6.852c1.162,0,2.054,0,3.18,0
	c0.913,3.013,1.851,6.109,2.882,9.516c0.997-3.326,1.901-6.346,2.833-9.455c0.982,0,1.919,0,3.107,0
	c-0.478,1.367-0.932,2.661-1.384,3.956c-1.224,3.51-2.359,7.054-3.698,10.52c-1.261,3.262-3.458,4.24-6.917,3.213
	c0.067-0.689,0.139-1.42,0.221-2.27c0.555,0.055,0.983,0.122,1.413,0.134c2.053,0.055,3.216-1.456,2.555-3.416
	c-1.248-3.704-2.556-7.387-3.837-11.08C91.239,7.68,91.154,7.384,90.986,6.852z"/>
<path fill-rule="evenodd" clip-rule="evenodd" fill="#505052" d="M187.514,6.699l0.229,2.812c1.146-1.729,2.854-3.196,5.141-3.001
	c-0.079,1.028-0.158,2.06-0.243,3.163c-0.604,0-1.049-0.029-1.489,0.006c-1.906,0.147-2.981,1.354-3.095,3.684
	c-0.093,1.912-0.019,3.832-0.019,5.878c-0.942,0-1.795,0-2.775,0c0-4.022,0-8.085,0-12.442
	C185.947,6.768,187.514,6.699,187.514,6.699z"/>
<path fill-rule="evenodd" clip-rule="evenodd" fill="#59595B" d="M282.938,19.179c-1.127,0-2.007,0-3.036,0
	c0-2.591,0.012-5.084-0.004-7.577c-0.012-1.857-0.402-2.465-1.598-2.588c-1.399-0.145-2.544,0.757-2.633,2.43
	c-0.131,2.494-0.033,5.001-0.033,7.667c-1.043,0-1.953,0-3.061,0c0-2.494,0.011-4.979-0.004-7.464
	c-0.01-1.945-0.447-2.584-1.745-2.64c-1.421-0.062-2.427,0.837-2.503,2.569c-0.108,2.49-0.027,4.99-0.027,7.593
	c-1.055,0-1.93,0-2.928,0c0-4.105,0-8.172,0-12.345c0.707,0,1.393,0,2.213,0c0.152,0.445,0.321,0.939,0.499,1.459
	c2.378-2.733,5.752-2.405,7.278,0.195c0.975-1.43,2.252-2.163,3.992-2.069c2.209,0.119,3.498,1.19,3.565,3.438
	C283.008,12.924,282.938,16.006,282.938,19.179z"/>
<path fill-rule="evenodd" clip-rule="evenodd" fill="#505052" d="M203.672,3.339c1.389,0,2.537,0,3.881,0
	c1.885,5.188,3.778,10.396,5.733,15.775c-1.128,0-2.06,0-3.196,0c-0.43-1.125-0.9-2.359-1.411-3.694c-2.001,0-4.037,0-6.237,0
	c-0.432,1.164-0.892,2.407-1.38,3.727c-0.946,0-1.888,0-3.104,0C199.885,13.813,201.763,8.62,203.672,3.339z M203.345,12.732
	c1.569,0,2.916,0,4.411,0c-0.738-2.273-1.423-4.379-2.217-6.823C204.748,8.367,204.072,10.468,203.345,12.732z"/>
<path fill-rule="evenodd" clip-rule="evenodd" fill="#505052" d="M283.961,6.789c1.161,0,2.053,0,3.18,0
	c0.912,3.013,1.85,6.108,2.882,9.516c0.997-3.326,1.901-6.347,2.832-9.456c0.982,0,1.919,0,3.108,0
	c-0.479,1.368-0.933,2.662-1.385,3.957c-1.225,3.51-2.358,7.054-3.699,10.519c-1.26,3.263-3.457,4.241-6.916,3.214
	c0.067-0.689,0.139-1.42,0.221-2.27c0.555,0.055,0.984,0.122,1.413,0.133c2.053,0.056,3.216-1.455,2.556-3.416
	c-1.248-3.703-2.557-7.387-3.838-11.079C284.214,7.616,284.129,7.321,283.961,6.789z"/>
<path fill-rule="evenodd" clip-rule="evenodd" fill="#505052" d="M237.457,17.146c0,0.856,0,1.424,0,1.963
	c-2.012,0.743-2.656,0.6-3.996-0.642c-1.502,0.433-2.774,1.026-4.083,1.121c-1.886,0.137-3.191-0.998-3.511-2.608
	c-0.373-1.877,0.372-3.622,2.122-4.24c1.479-0.522,3.087-0.684,4.833-1.045c0.236-0.962,0.385-2.089-0.879-2.784
	c-1.092-0.601-2.115-0.017-3.182,1.746c-0.763-0.138-1.566-0.283-2.619-0.474c0.22-0.683,0.312-1.305,0.604-1.815
	c0.965-1.693,3.967-2.479,6.443-1.748c1.873,0.552,2.688,1.78,2.703,4.104c0.009,1.538,0.039,3.077-0.012,4.612
	C235.846,16.447,236.068,17.265,237.457,17.146z M232.835,13.69c-1.093,0.215-2.165,0.228-3.02,0.666
	c-0.527,0.271-1.011,1.193-1,1.815c0.017,0.965,0.923,1.302,1.826,1.284C232.387,17.423,233.154,16.245,232.835,13.69z"/>
<path fill-rule="evenodd" clip-rule="evenodd" fill="#505052" d="M263.215,13.62c-2.869,0-5.41,0-7.952,0
	c0.093,2.087,0.72,3.148,1.982,3.548c1.377,0.436,2.319-0.01,3.552-1.742c0.738,0.219,1.515,0.449,2.404,0.714
	c-0.536,2.074-1.844,3.114-3.774,3.383c-2.423,0.337-4.647-0.023-6.128-2.256c-1.494-2.255-1.412-6.388,0.125-8.623
	c1.266-1.84,3.753-2.688,6.189-2.11c2.025,0.48,3.363,2.12,3.591,4.484C263.276,11.77,263.215,12.534,263.215,13.62z M260.35,11.603
	c-0.23-2.2-0.931-2.962-2.47-2.923c-1.544,0.041-2.398,1.008-2.541,2.923C256.969,11.603,258.594,11.603,260.35,11.603z"/>
<path fill-rule="evenodd" clip-rule="evenodd" fill="#505052" d="M224.242,10.472c-0.777,0.187-1.511,0.363-2.208,0.53
	c-0.149-0.117-0.304-0.174-0.333-0.271c-0.354-1.135-0.976-2.006-2.279-1.946c-1.382,0.063-2.37,0.896-2.535,2.209
	c-0.178,1.415-0.12,2.902,0.108,4.314c0.187,1.153,1.127,1.831,2.334,1.954c1.167,0.118,1.958-0.418,2.42-1.486
	c0.068-0.158,0.241-0.271,0.421-0.465c0.714,0.215,1.427,0.429,2.173,0.651c0.064,1.34-0.599,2.164-1.522,2.797
	c-3.08,2.113-7.562,0.68-8.707-2.844c-0.781-2.403-0.678-4.816,0.629-7.051c1.135-1.939,3.465-2.851,6.043-2.383
	c1.789,0.326,3.01,1.354,3.449,3.176C224.291,9.89,224.242,10.146,224.242,10.472z"/>
<path fill-rule="evenodd" clip-rule="evenodd" fill="#59595B" d="M250.168,19.269c-0.856,0-1.558,0-2.371,0
	c-0.168-0.33-0.357-0.707-0.574-1.136c-0.178,0.093-0.345,0.149-0.475,0.253c-3.026,2.412-6.854,1.332-7.951-2.346
	c-0.357-1.2-0.443-2.532-0.395-3.793c0.179-4.684,4.204-7.587,8.803-4.77c0-2.094,0-4.135,0-6.293c1.014,0,1.939,0,2.963,0
	C250.168,7.187,250.168,13.128,250.168,19.269z M247.305,12.909c-0.016-0.001-0.02-0.898-0.053-1.344
	c-0.129-1.709-0.889-2.618-2.322-2.815c-1.566-0.216-2.886,0.435-3.203,2.046c-0.286,1.449-0.266,3.045,0.021,4.496
	c0.282,1.431,1.634,2.156,2.884,2.017c1.354-0.151,2.402-1.215,2.589-2.675C247.292,14.063,247.279,13.483,247.305,12.909z"/>
</svg>
